<svg xmlns="http://www.w3.org/2000/svg" viewBox="0 0 32 32" width="32" height="32">
  <rect x="1" y="1" width="30" height="30" rx="6" fill="#F5C83C" stroke="#1A1A1A" stroke-width="2"/>
  <rect x="6.25" y="7" width="3" height="18" rx="1" fill="#1A1A1A"/>
  <rect x="6.25" y="7" width="6.75" height="3.5" rx="1" fill="#1A1A1A"/>
  <rect x="6.25" y="14.25" width="5.25" height="3.5" rx="1" fill="#1A1A1A"/>
  <rect x="6.25" y="21.5" width="6.75" height="3.5" rx="1" fill="#1A1A1A"/>
  <path d="M18 7H21.75C25.2018 7 28 9.79822 28 13.25V18.75C28 22.2018 25.2018 25 21.75 25H18V21H21.25C23.5972 21 25.5 19.0972 25.5 16.75V15.25C25.5 12.9028 23.5972 11 21.25 11H18V7Z" fill="#1A1A1A"/>
  <circle cx="16" cy="16" r="1.8" fill="#E8567A"/>
</svg>
